<?xml version="1.0" encoding="UTF-8"?>
<svg xmlns="http://www.w3.org/2000/svg" xmlns:xlink="http://www.w3.org/1999/xlink" width="48px" height="48px" viewBox="0 0 48 48" version="1.1">
<defs>
<linearGradient id="linear0" gradientUnits="userSpaceOnUse" x1="73.8795" y1="58.7686" x2="159.6668" y2="221.1516" gradientTransform="matrix(0.218182,0,0,0.218182,0,0)">
<stop offset="0" style="stop-color:rgb(20.392157%,70.196078%,100%);stop-opacity:1;"/>
<stop offset="0.9779" style="stop-color:rgb(97.254902%,10.980392%,93.333333%);stop-opacity:1;"/>
</linearGradient>
</defs>
<g id="surface1">
<path style=" stroke:none;fill-rule:nonzero;fill:url(#linear0);" d="M 34.496094 23.34375 C 33.183594 27.078125 29.628906 29.738281 25.460938 29.738281 C 19.941406 29.738281 15.535156 25.089844 15.90625 19.484375 C 16.234375 14.640625 20.269531 10.757812 25.132812 10.605469 C 29.453125 10.472656 33.164062 13.179688 34.496094 16.996094 C 38.050781 16.996094 39.972656 12.871094 37.746094 10.125 C 34.757812 6.4375 30.132812 4.125 24.960938 4.277344 C 16.710938 4.496094 9.949219 11.128906 9.578125 19.375 C 9.554688 19.746094 9.554688 20.09375 9.578125 20.464844 L 9.554688 20.464844 L 9.554688 44.203125 C 11.605469 44.203125 13.179688 43.8125 14.269531 43.003906 C 15.359375 42.195312 15.90625 41.039062 15.90625 39.511719 L 15.90625 32.816406 C 18.566406 34.800781 21.863281 36 25.441406 36 C 30.4375 36 34.886719 33.6875 37.789062 30.085938 C 39.972656 27.382812 37.964844 23.34375 34.496094 23.34375 Z M 34.496094 23.34375 "/>
</g>
</svg>
